# xmcd
#
# Track frame offsets: 
#        150
#        21887
#        41162
#        59287
#        76957
#        97245
#        133250
#        165870
#        185380
#        212700
#        233212
#        254437
#        286750
#
# Disc length: 4444 seconds
#
# Revision: 0
# Processed by: cddbd v1.5.2PL0 Copyright (c) Steve Scherf et al.
# Submitted via: ExactAudioCopy v0.99pb4
#
DISCID=b4115a0d
DTITLE=Rob Wassermann und Bob Weir - Live
DYEAR=1900
DGENRE=
TTITLE0=Festival
TTITLE1=Walkin`blues
TTITLE2=The winner`s
TTITLE3=Kc moan
TTITLE4=Victim or the crime
TTITLE5=Looks like rain
TTITLE6=Easy to slip
TTITLE7=Fever
TTITLE8=Eternity
TTITLE9=This time forever
TTITLE10=Shade of grey
TTITLE11=Heaven help the fool
TTITLE12=Throwing stones
EXTD=
EXTT0=
EXTT1=
EXTT2=
EXTT3=
EXTT4=
EXTT5=
EXTT6=
EXTT7=
EXTT8=
EXTT9=
EXTT10=
EXTT11=
EXTT12=
PLAYORDER=
